HIERARCHY
ROOT Hips
{
 OFFSET 0.000000 0.000000 0.000000
 CHANNELS 6 Xposition Yposition Zposition Yrotation Xrotation Zrotation
 JOINT Chest
 {
  OFFSET 0.000000 11.395451 -0.039534
  CHANNELS 3 Yrotation Xrotation Zrotation
  JOINT Chest2
  {
   OFFSET 0.000000 9.398669 0.071813
   CHANNELS 3 Yrotation Xrotation Zrotation
   JOINT Chest3
   {
    OFFSET 0.000000 8.489801 0.000000
    CHANNELS 3 Yrotation Xrotation Zrotation
    JOINT Chest4
    {
     OFFSET 0.000000 8.489801 0.000000
     CHANNELS 3 Yrotation Xrotation Zrotation
     JOINT Neck
     {
      OFFSET 0.000000 12.404889 0.000000
      CHANNELS 3 Yrotation Xrotation Zrotation
      JOINT Head
      {
       OFFSET 0.000000 8.903270 0.092239
       CHANNELS 3 Yrotation Xrotation Zrotation
       End Site
       {
        OFFSET 0.000000 17.592497 0.007158
       }
      }
     }
     JOINT RightCollar
     {
      OFFSET -3.196775 6.966722 0.000000
      CHANNELS 3 Yrotation Xrotation Zrotation
      JOINT RightShoulder
      {
       OFFSET -15.955896 0.000000 0.000000
       CHANNELS 3 Yrotation Xrotation Zrotation
       JOINT RightElbow
       {
        OFFSET -24.792472 0.000000 0.000000
        CHANNELS 3 Yrotation Xrotation Zrotation
        JOINT RightWrist
        {
         OFFSET -20.900115 0.000000 0.025002
         CHANNELS 3 Yrotation Xrotation Zrotation
         End Site
         {
          OFFSET -16.056692 0.000000 0.000000
         }
        }
       }
      }
     }
     JOINT LeftCollar
     {
      OFFSET 3.196775 6.966722 0.000000
      CHANNELS 3 Yrotation Xrotation Zrotation
      JOINT LeftShoulder
      {
       OFFSET 15.955896 0.000000 0.000000
       CHANNELS 3 Yrotation Xrotation Zrotation
       JOINT LeftElbow
       {
        OFFSET 24.792472 0.000000 0.000000
        CHANNELS 3 Yrotation Xrotation Zrotation
        JOINT LeftWrist
        {
         OFFSET 20.900115 0.000000 0.025002
         CHANNELS 3 Yrotation Xrotation Zrotation
         End Site
         {
          OFFSET 16.056692 0.000000 0.000000
         }
        }
       }
      }
     }
    }
   }
  }
 }
 JOINT RightHip
 {
  OFFSET -9.568995 0.193718 0.019767
  CHANNELS 3 Yrotation Xrotation Zrotation
  JOINT RightKnee
  {
   OFFSET 0.000000 -56.649296 0.015402
   CHANNELS 3 Yrotation Xrotation Zrotation
   JOINT RightAnkle
   {
    OFFSET 0.000000 -41.365147 0.021264
    CHANNELS 3 Yrotation Xrotation Zrotation
    JOINT RightToe
    {
     OFFSET 0.000000 -7.465940 17.672538
     CHANNELS 3 Yrotation Xrotation Zrotation
     End Site
     {
      OFFSET 0.000000 -1.736315 7.837145
     }
    }
   }
  }
 }
 JOINT LeftHip
 {
  OFFSET 9.568995 0.193718 0.019767
  CHANNELS 3 Yrotation Xrotation Zrotation
  JOINT LeftKnee
  {
   OFFSET 0.000000 -56.649296 0.015402
   CHANNELS 3 Yrotation Xrotation Zrotation
   JOINT LeftAnkle
   {
    OFFSET 0.000000 -41.365147 0.021264
    CHANNELS 3 Yrotation Xrotation Zrotation
    JOINT LeftToe
    {
     OFFSET 0.000000 -7.465940 17.672538
     CHANNELS 3 Yrotation Xrotation Zrotation
     End Site
     {
      OFFSET 0.000000 -1.736315 7.837145
     }
    }
   }
  }
 }
}
MOTION
Frames: 7
Frame Time: 0.016667
46.696298 52.680715 18.821862 -12.853507 4.335982 -0.005462 -5.265203 4.526631 -2.146531 -2.317228 2.036058 -0.901792 -2.317228 2.036059 -0.901789 -1.734737 1.530494 -0.668557 -8.524477 18.507221 1.863417 -16.242106 -1.124527 6.150671 0.389863 0.833106 7.569900 3.541919 0.510781 78.969100 41.139290 3.632643 19.669188 -4.360012 -0.692004 0.143720 -0.105862 4.378585 -6.680228 4.263547 -8.773416 -62.328636 -42.695531 9.288146 -23.100840 -2.193731 -4.884387 -0.637733 5.562021 -38.483866 0.739492 7.316886 45.470558 3.920939 6.212030 -3.598637 -0.909634 0.000000 0.000000 0.000000 13.247936 -23.632987 -5.790305 -7.016242 26.711786 -1.104890 -2.263313 -8.352469 -1.507331 0.000000 0.000000 0.000000
46.288273 52.576336 19.057244 -12.579786 4.384456 -0.396901 -5.383294 4.515443 -2.270889 -2.368518 2.033070 -0.956000 -2.368518 2.033070 -0.956000 -1.773026 1.528538 -0.709055 -8.528669 18.498264 1.950234 -16.278243 -1.127272 6.311470 0.366913 0.747824 7.640156 3.318993 0.589536 79.128248 41.534567 3.766213 19.918783 -4.177588 -0.606451 -0.073359 -0.002428 4.396834 -6.643955 4.074285 -8.762660 -61.899791 -43.496537 8.726129 -23.307614 -2.112554 -4.802962 -0.776731 5.467933 -39.200548 0.865809 7.118160 43.309569 3.749292 6.473399 -1.727602 -1.177652 0.000000 0.000000 0.000000 13.114916 -24.096045 -5.332142 -7.174612 27.795241 -1.082934 -2.318835 -9.081563 -1.275859 0.000000 0.000000 0.000000
45.844508 52.459599 19.266429 -12.387849 4.410777 -0.850445 -5.452762 4.532524 -2.384757 -2.398151 2.042335 -1.005683 -2.398149 2.042334 -1.005686 -1.795064 1.535727 -0.746183 -8.532727 18.451943 2.050618 -16.322455 -1.196704 6.502110 0.364878 0.715467 7.703392 3.138161 0.643417 79.245021 42.018406 3.922158 20.118798 -3.940849 -0.475885 -0.297325 0.091817 4.412749 -6.565541 3.980808 -8.806422 -61.572718 -44.326559 8.173214 -23.512617 -2.033368 -4.738455 -0.887643 5.751093 -39.918456 0.797862 6.162052 41.454226 3.392296 6.829796 -0.005078 -1.112300 0.000000 0.000000 0.000000 13.057939 -24.562971 -4.808616 -7.333976 28.880648 -1.037296 -2.311672 -9.742304 -0.958262 0.000000 0.000000 0.000000
45.374639 52.327755 19.452340 -12.245672 4.427861 -1.351839 -5.490308 4.563470 -2.491855 -2.413579 2.057541 -1.052491 -2.413576 2.057539 -1.052491 -1.806446 1.547341 -0.781169 -8.539066 18.383846 2.157879 -16.375396 -1.304770 6.709165 0.376898 0.712101 7.756141 2.977491 0.684451 79.327876 42.545434 4.064613 20.304911 -3.676164 -0.336219 -0.517819 0.173927 4.432319 -6.470367 3.949264 -8.878390 -61.287750 -45.192043 7.582034 -23.743288 -1.940182 -4.695678 -0.981868 6.177212 -40.630000 0.629673 4.812845 39.845509 2.982080 7.248712 1.675184 -0.842873 0.000000 0.000000 0.000000 13.037393 -25.057893 -4.240558 -7.506772 29.999101 -0.968619 -2.250503 -10.381743 -0.598352 0.000000 0.000000 0.000000
44.902063 52.172854 19.628121 -12.084802 4.464368 -1.855259 -5.529789 4.580351 -2.605358 -2.429886 2.066602 -1.102293 -2.429886 2.066602 -1.102293 -1.818495 1.554369 -0.818426 -8.544424 18.327118 2.272503 -16.427687 -1.390689 6.927936 0.387262 0.696505 7.794164 2.811976 0.727298 79.365029 43.050237 4.141048 20.551662 -3.465198 -0.270963 -0.678990 0.219101 4.466243 -6.404157 4.002828 -8.919910 -60.918887 -46.167463 6.812803 -24.137481 -1.848848 -4.692266 -1.054577 6.391832 -41.309978 0.497845 3.621001 38.387619 2.637885 7.634415 3.270939 -0.412278 0.000000 0.000000 0.000000 12.937782 -25.607159 -3.669509 -7.695632 31.171130 -0.885539 -2.129586 -11.045558 -0.306888 0.000000 0.000000 0.000000
44.450724 51.994392 19.802997 -11.902635 4.516882 -2.336567 -5.577392 4.578209 -2.729588 -2.449809 2.067409 -1.157019 -2.449808 2.067410 -1.157023 -1.833248 1.555231 -0.859401 -8.549105 18.293785 2.389687 -16.477260 -1.432910 7.147945 0.393960 0.657787 7.812660 2.626921 0.782308 79.338796 43.520381 4.087173 20.880169 -3.335400 -0.342525 -0.731890 0.202047 4.499461 -6.409311 4.130628 -8.897596 -60.444734 -47.235469 5.753347 -24.675633 -1.778085 -4.741908 -1.102674 6.211752 -41.934514 0.478233 2.848021 37.088902 2.459899 7.857944 4.733052 0.153529 0.000000 0.000000 0.000000 12.691695 -26.197088 -3.126604 -7.955560 32.401518 -0.798652 -1.838503 -11.734422 -0.128378 0.000000 0.000000 0.000000
43.996679 51.792873 19.967742 -11.702209 4.589267 -2.819729 -5.627358 4.562243 -2.860287 -2.470812 2.062187 -1.214764 -2.470807 2.062187 -1.214768 -1.848810 1.551586 -0.902657 -8.552380 18.271816 2.514144 -16.525441 -1.453011 7.379190 0.398361 0.606890 7.816441 2.437310 0.839287 79.266460 43.965982 3.965190 21.266314 -3.259089 -0.488982 -0.725874 0.148539 4.548746 -6.443651 4.346027 -8.850038 -59.886934 -48.396557 4.505189 -25.364132 -1.710895 -4.830017 -1.125775 5.809480 -42.522705 0.510695 2.215038 35.943499 2.340391 8.044026 6.118009 0.860876 0.000000 0.000000 0.000000 12.362985 -26.836732 -2.576565 -8.234662 33.685911 -0.706280 -1.485473 -12.444906 -0.022731 0.000000 0.000000 0.000000
